PathFileType	4	(X/Y/Z)	C:/Users/opensim2020/Desktop/walking_exp_matlab/subject01_walking10_straight_04.trc	
DataRate	CameraRate	NumFrames	NumMarkers	Units	OrigDataRate	OrigDataStartFrame	OrigNumFrames	
100.00	100.00	4	43	mm	100.00	3890	274	
Frame#	Time	LFHD			RFHD			LBHD			RBHD			C7			T10			CLAV			STRN			RBAK			LSHO			LUPA			LELB			LFRM			LWRA			LWRB			LFIN			RSHO			RUPA			RELB			RFRM			RWRA			RWRB			RFIN			LASI			RASI			LPSI			RPSI			LTHI			LKNE			LTIB			LANK			LHEE			LTOE			RTHI			RKNE			RTIB			RANK			RHEE			RTOE			*39			*40			*41			*42			
		X1	Y1	Z1	X2	Y2	Z2	X3	Y3	Z3	X4	Y4	Z4	X5	Y5	Z5	X6	Y6	Z6	X7	Y7	Z7	X8	Y8	Z8	X9	Y9	Z9	X10	Y10	Z10	X11	Y11	Z11	X12	Y12	Z12	X13	Y13	Z13	X14	Y14	Z14	X15	Y15	Z15	X16	Y16	Z16	X17	Y17	Z17	X18	Y18	Z18	X19	Y19	Z19	X20	Y20	Z20	X21	Y21	Z21	X22	Y22	Z22	X23	Y23	Z23	X24	Y24	Z24	X25	Y25	Z25	X26	Y26	Z26	X27	Y27	Z27	X28	Y28	Z28	X29	Y29	Z29	X30	Y30	Z30	X31	Y31	Z31	X32	Y32	Z32	X33	Y33	Z33	X34	Y34	Z34	X35	Y35	Z35	X36	Y36	Z36	X37	Y37	Z37	X38	Y38	Z38	X39	Y39	Z39	X40	Y40	Z40	X41	Y41	Z41	X42	Y42	Z42	X43	Y43	Z43	

69	0.680	-1067.07324	579.21039	1678.19324	-1172.93506	535.02490	1677.66553	-1106.76550	691.54443	1641.65100	-1220.16125	648.73334	1641.33740	-1131.40979	732.34241	1439.77344	-1132.57556	764.19135	1145.98926	-1124.14331	588.47632	1373.16101	-1113.59705	544.70630	1219.33801	-1205.99841	781.15594	1241.68860	-966.69824	654.14777	1408.97131	-879.99176	680.18970	1225.35059	-878.00317	687.71478	1073.05005	-851.04614	637.87549	970.13440	-864.68188	545.11182	866.05676	-843.27795	599.95007	853.87653	-830.13373	543.14581	792.02893	-1278.08228	646.08667	1396.33069	-1377.79028	695.86163	1194.17297	-1381.99377	691.61121	1070.45068	-1415.09033	660.34497	955.18323	-1400.77405	575.38470	841.07086	-1438.87378	619.34857	841.53833	-1439.18738	580.77704	763.90668	-1014.85858	599.26740	938.06567	-1231.90308	587.01215	941.25586	-1075.17920	780.81989	951.55646	-1220.48474	773.10657	957.08508	-949.11890	588.70569	609.72089	-956.65900	586.16986	476.45563	-950.98206	725.56500	356.83273	-999.79529	875.96375	196.66556	-1058.02087	924.64832	196.49229	-986.09082	795.31659	77.47078	-1283.81665	620.30554	608.35553	-1253.54382	598.59796	451.87170	-1257.91565	648.83997	281.25278	-1202.60229	670.02844	77.74669	-1152.42773	718.41821	40.07629	-1198.18652	528.65283	38.79494	-1155.40442	549.27441	1713.44666	-3101.76782	1973.07373	1023.33026	-3140.60522	2012.45935	1022.03387			 
70	0.690	-1067.59033	572.41675	1678.35938	-1173.46655	527.94556	1677.72986	-1107.94067	684.79437	1642.21741	-1221.10583	641.76959	1641.80078	-1132.45740	725.94867	1440.14807	-1133.65247	758.03131	1146.41272	-1124.76880	582.20581	1373.40881	-1114.26965	538.53735	1219.54773	-1207.19958	774.73535	1242.17798	-967.43701	648.35876	1409.31604	-881.16449	675.55023	1225.60498	-879.64697	683.93408	1073.27551	-852.54828	635.93939	969.93347	-866.00714	544.61279	864.39911	-844.56519	599.66412	852.97504	-831.72937	543.84039	790.09912	-1278.89148	639.37500	1396.73083	-1378.97046	687.95593	1194.49426	-1383.55786	682.91724	1070.83997	-1416.84277	650.65851	955.93109	-1402.64905	564.71735	842.51843	-1440.83472	608.82556	842.73315	-1441.40393	569.32391	765.44739	-1016.14197	593.31793	938.90985	-1233.07544	581.05414	941.34381	-1076.02966	774.74200	951.96619	-1221.35828	767.16278	957.26025	-949.66772	578.59290	611.41089	-957.39337	574.03949	478.19019	-952.11804	711.26611	356.05902	-1001.92877	858.94781	193.75238	-1060.62219	907.15033	191.47179	-986.04926	774.49512	77.41589	-1284.15930	616.76831	608.22614	-1253.98352	596.84961	451.52637	-1258.18604	648.20203	281.20874	-1202.57935	669.92377	77.73152	-1152.38672	718.26135	40.22351	-1198.13306	528.75928	38.70677	-1155.87708	542.10138	1713.54089	-3101.82935	1973.15588	1023.43030	-3140.68262	2012.53687	1022.09552			 
71	0.700	-1068.16199	565.55566	1678.48474	-1173.83521	520.88031	1677.82104	-1108.01147	677.89374	1642.56104	-1221.98181	634.78259	1642.34326	-1133.44531	719.61279	1440.53687	-1134.76807	751.86090	1146.79272	-1125.28955	575.94604	1373.70496	-1114.94360	532.33502	1219.86230	-1208.42395	768.50592	1242.66370	-968.19183	642.54700	1409.62256	-882.16138	670.82819	1225.85229	-881.29688	680.25189	1073.75427	-853.97101	633.85352	969.65796	-867.34210	544.21228	862.79645	-846.17340	599.46680	852.25500	-833.31390	544.55103	788.22571	-1279.59509	632.75391	1397.24548	-1380.07568	680.18750	1194.78394	-1385.02600	674.31274	1071.23071	-1418.58411	641.01862	956.77209	-1404.39893	554.14740	843.94055	-1442.79175	598.10785	843.91150	-1443.26990	557.95563	767.02960	-1017.20410	587.22626	939.77753	-1234.25049	575.04956	941.45825	-1076.83826	768.74677	952.37994	-1222.16418	761.23010	957.44067	-950.18610	568.59082	613.12610	-958.20660	562.17047	480.04413	-953.37146	696.96448	354.68909	-1004.08600	840.79559	189.61409	-1063.19543	889.01160	185.59477	-985.73474	752.96027	77.13131	-1284.63013	613.45819	608.06628	-1254.44836	595.22919	451.04617	-1258.44592	647.38306	281.12753	-1202.52441	669.91766	77.76550	-1152.34802	718.28931	40.33344	-1198.22791	528.66205	38.85441	-1156.27332	534.94928	1713.64856	-3101.97534	1973.11414	1023.43225	-3140.81885	2012.52991	1021.93005			 
72	0.710	-1068.55469	558.82495	1678.66052	-1174.18848	513.87616	1677.89722	-1108.87097	671.13916	1643.09937	-1222.52271	627.75598	1642.73486	-1134.35620	713.21387	1440.89709	-1135.81140	745.71393	1147.21155	-1125.87939	569.61652	1374.06238	-1115.53381	526.13440	1220.12744	-1209.50977	762.10059	1243.10083	-968.89319	636.72504	1409.89832	-883.15643	666.12946	1226.08667	-882.70880	676.65002	1074.19836	-855.34491	631.79724	969.54419	-868.61230	543.72827	861.21259	-847.41107	599.18274	851.52502	-834.75385	545.43878	786.57214	-1280.31543	626.15662	1397.78821	-1380.99524	672.52637	1195.05005	-1386.39160	665.77771	1071.62708	-1420.09668	631.43707	957.51758	-1406.07104	543.63025	845.51318	-1444.23608	587.43274	845.03564	-1445.25049	546.66925	768.76324	-1018.14166	581.34253	940.61139	-1235.14099	569.05432	941.50067	-1077.65833	762.72693	952.79700	-1222.96082	755.13947	957.63922	-950.71344	558.79156	614.95813	-959.03809	550.60956	481.95264	-954.64575	682.52948	352.90445	-1006.08301	822.61713	185.53365	-1065.62952	870.04272	178.93810	-985.11407	731.09039	76.25998	-1285.10291	610.16602	607.97803	-1254.83459	593.48798	450.87753	-1258.78491	646.49060	281.11264	-1202.58582	669.87500	77.81627	-1152.37378	718.29816	40.42011	-1198.25293	528.68280	38.86271	-1156.53540	527.94312	1713.61511	-3101.89038	1973.12817	1023.65021	-3140.79321	2012.49731	1022.07220			 
